<svg width="38" height="38" viewBox="0 0 38 38" fill="none" xmlns="http://www.w3.org/2000/svg">
<rect x="0.975586" y="0.000244141" width="37.024" height="37.024" rx="10.68" fill="#F6F6F6"/>
<path d="M15.8382 15.2443V24.2722H13.4268V15.2443H15.8382ZM13.2767 12.8913C13.2767 12.5409 13.399 12.2517 13.6438 12.0236C13.8885 11.7955 14.2167 11.6815 14.6283 11.6815C15.0344 11.6815 15.3598 11.7955 15.6046 12.0236C15.8549 12.2517 15.98 12.5409 15.98 12.8913C15.98 13.2418 15.8549 13.531 15.6046 13.7591C15.3598 13.9872 15.0344 14.1012 14.6283 14.1012C14.2167 14.1012 13.8885 13.9872 13.6438 13.7591C13.399 13.531 13.2767 13.2418 13.2767 12.8913ZM20.5187 17.1717V24.2722H18.1157V15.2443H20.3685L20.5187 17.1717ZM20.1683 19.4412H19.5174C19.5174 18.7737 19.6037 18.1729 19.7761 17.6389C19.9485 17.0994 20.1905 16.6405 20.502 16.2622C20.8135 15.8784 21.1834 15.5864 21.6117 15.3861C22.0456 15.1803 22.5295 15.0774 23.0635 15.0774C23.4863 15.0774 23.8729 15.1386 24.2233 15.261C24.5738 15.3833 24.8741 15.578 25.1244 15.845C25.3803 16.112 25.575 16.4652 25.7085 16.9047C25.8476 17.3441 25.9171 17.8809 25.9171 18.515V24.2722H23.4974V18.5067C23.4974 18.1062 23.4418 17.7947 23.3305 17.5722C23.2193 17.3497 23.0552 17.1939 22.8383 17.1049C22.6269 17.0104 22.3654 16.9631 22.0539 16.9631C21.7313 16.9631 21.4504 17.0271 21.2112 17.155C20.9776 17.2829 20.7829 17.4609 20.6272 17.689C20.477 17.9115 20.3629 18.1729 20.2851 18.4733C20.2072 18.7737 20.1683 19.0963 20.1683 19.4412Z" fill="#2A2F2F"/>
</svg>
