<svg width="20" height="16" viewBox="0 0 20 16" fill="none" xmlns="http://www.w3.org/2000/svg">
<path d="M6.66675 4.58341C6.25253 4.58341 5.91675 4.9192 5.91675 5.33341C5.91675 5.74763 6.25253 6.08341 6.66675 6.08341V4.58341ZM13.3334 6.08341C13.7476 6.08341 14.0834 5.74763 14.0834 5.33341C14.0834 4.9192 13.7476 4.58341 13.3334 4.58341V6.08341ZM6.66675 7.91675C6.25253 7.91675 5.91675 8.25253 5.91675 8.66675C5.91675 9.08096 6.25253 9.41675 6.66675 9.41675V7.91675ZM10.0001 9.41675C10.4143 9.41675 10.7501 9.08096 10.7501 8.66675C10.7501 8.25253 10.4143 7.91675 10.0001 7.91675V9.41675ZM2.57676 12.6518L2.91726 11.9835H2.91726L2.57676 12.6518ZM1.8484 11.9234L1.18015 12.2639H1.18015L1.8484 11.9234ZM18.1518 11.9234L18.82 12.2639V12.2639L18.1518 11.9234ZM17.4234 12.6518L17.7639 13.32L17.7639 13.32L17.4234 12.6518ZM17.4234 1.3484L17.7639 0.680149L17.7639 0.680149L17.4234 1.3484ZM18.1518 2.07676L18.82 1.73627V1.73627L18.1518 2.07676ZM2.57676 1.3484L2.91726 2.01666L2.57676 1.3484ZM1.8484 2.07676L2.51666 2.41726L1.8484 2.07676ZM5.66675 14.8334L6.11675 15.4334H6.11675L5.66675 14.8334ZM7.6223 13.3667L8.0723 13.9667L8.0723 13.9667L7.6223 13.3667ZM8.56921 12.8644L8.7131 13.6004H8.71311L8.56921 12.8644ZM8.16335 12.9997L7.83682 12.3245H7.83682L8.16335 12.9997ZM6.66675 6.08341H13.3334V4.58341H6.66675V6.08341ZM6.66675 9.41675H10.0001V7.91675H6.66675V9.41675ZM4.33341 1.91675H15.6667V0.416748H4.33341V1.91675ZM17.5834 3.83341V10.1667H19.0834V3.83341H17.5834ZM2.41675 10.1667V3.83341H0.916748V10.1667H2.41675ZM4.33342 12.0834C3.85433 12.0834 3.54012 12.0828 3.29983 12.0632C3.06829 12.0443 2.97217 12.0115 2.91726 11.9835L2.23627 13.32C2.53788 13.4737 2.85338 13.5317 3.17768 13.5582C3.49322 13.584 3.87908 13.5834 4.33342 13.5834V12.0834ZM0.916748 10.1667C0.916748 10.6211 0.916165 11.0069 0.941946 11.3225C0.968442 11.6468 1.02647 11.9623 1.18015 12.2639L2.51666 11.5829C2.48868 11.528 2.45588 11.4319 2.43696 11.2003C2.41733 10.96 2.41675 10.6458 2.41675 10.1667H0.916748ZM2.91726 11.9835C2.74478 11.8956 2.60454 11.7554 2.51666 11.5829L1.18015 12.2639C1.41184 12.7186 1.78155 13.0883 2.23627 13.32L2.91726 11.9835ZM17.5834 10.1667C17.5834 10.6458 17.5828 10.96 17.5632 11.2003C17.5443 11.4319 17.5115 11.528 17.4835 11.5829L18.82 12.2639C18.9737 11.9623 19.0317 11.6468 19.0582 11.3225C19.084 11.0069 19.0834 10.6211 19.0834 10.1667H17.5834ZM15.6667 13.5834C16.1211 13.5834 16.5069 13.584 16.8225 13.5582C17.1468 13.5317 17.4623 13.4737 17.7639 13.32L17.0829 11.9835C17.028 12.0115 16.9319 12.0443 16.7003 12.0632C16.46 12.0828 16.1458 12.0834 15.6667 12.0834V13.5834ZM17.4835 11.5829C17.3956 11.7554 17.2554 11.8956 17.0829 11.9835L17.7639 13.32C18.2186 13.0883 18.5883 12.7186 18.82 12.2639L17.4835 11.5829ZM15.6667 1.91675C16.1458 1.91675 16.46 1.91733 16.7003 1.93696C16.9319 1.95588 17.028 1.98868 17.0829 2.01666L17.7639 0.680149C17.4623 0.526471 17.1468 0.468442 16.8225 0.441946C16.5069 0.416165 16.1211 0.416748 15.6667 0.416748V1.91675ZM19.0834 3.83341C19.0834 3.37908 19.084 2.99322 19.0582 2.67768C19.0317 2.35338 18.9737 2.03788 18.82 1.73627L17.4835 2.41726C17.5115 2.47217 17.5443 2.56829 17.5632 2.79983C17.5828 3.04012 17.5834 3.35433 17.5834 3.83341H19.0834ZM17.0829 2.01666C17.2554 2.10454 17.3956 2.24477 17.4835 2.41726L18.82 1.73627C18.5883 1.28155 18.2186 0.911844 17.7639 0.680149L17.0829 2.01666ZM4.33341 0.416748C3.87908 0.416748 3.49322 0.416165 3.17768 0.441946C2.85338 0.468442 2.53788 0.526471 2.23627 0.680149L2.91726 2.01666C2.97217 1.98868 3.06829 1.95588 3.29983 1.93696C3.54012 1.91733 3.85433 1.91675 4.33341 1.91675V0.416748ZM2.41675 3.83341C2.41675 3.35433 2.41733 3.04012 2.43696 2.79983C2.45588 2.56829 2.48868 2.47217 2.51666 2.41726L1.18015 1.73627C1.02647 2.03788 0.968442 2.35338 0.941946 2.67768C0.916165 2.99322 0.916748 3.37908 0.916748 3.83341H2.41675ZM2.23627 0.680149C1.78155 0.911843 1.41184 1.28155 1.18015 1.73627L2.51666 2.41726C2.60454 2.24477 2.74477 2.10454 2.91726 2.01666L2.23627 0.680149ZM4.25008 13.5001V14.5001H5.75008V13.5001H4.25008ZM15.6667 12.0834H9.2223V13.5834H15.6667V12.0834ZM6.11675 15.4334L8.0723 13.9667L7.1723 12.7667L5.21675 14.2334L6.11675 15.4334ZM9.2223 12.0834C8.921 12.0834 8.67141 12.0802 8.42532 12.1283L8.71311 13.6004C8.78378 13.5866 8.86399 13.5834 9.2223 13.5834V12.0834ZM8.0723 13.9667C8.35895 13.7518 8.42505 13.7062 8.48988 13.6749L7.83682 12.3245C7.61109 12.4336 7.41335 12.586 7.1723 12.7667L8.0723 13.9667ZM8.42532 12.1283C8.22154 12.1681 8.02375 12.2341 7.83682 12.3245L8.48988 13.6749C8.56078 13.6406 8.63581 13.6156 8.7131 13.6004L8.42532 12.1283ZM4.25008 14.5001C4.25008 15.4615 5.34764 16.0102 6.11675 15.4334L5.21675 14.2334C5.43649 14.0686 5.75008 14.2254 5.75008 14.5001H4.25008ZM4.33342 13.5834C4.28739 13.5834 4.25008 13.5461 4.25008 13.5001H5.75008C5.75008 12.7177 5.11582 12.0834 4.33342 12.0834V13.5834Z" fill="#EFF4F4"/>
</svg>
